<svg xmlns="http://www.w3.org/2000/svg" viewBox="0 0 512 512" role="img" aria-label="ProjectProof camera icon concept 1">
  <defs>
    <linearGradient id="bg" x1="70" y1="38" x2="440" y2="472">
      <stop stop-color="#050a12"/>
      <stop offset=".55" stop-color="#101827"/>
      <stop offset="1" stop-color="#173747"/>
    </linearGradient>
    <linearGradient id="lens" x1="142" y1="142" x2="370" y2="370">
      <stop stop-color="#4f8cff"/>
      <stop offset=".54" stop-color="#18a498"/>
      <stop offset="1" stop-color="#d29a3f"/>
    </linearGradient>
  </defs>
  <rect width="512" height="512" rx="112" fill="url(#bg)"/>
  <path d="M78 378c70-32 126-34 190-18 76 19 128 7 166-34v112H78z" fill="#020713" opacity=".38"/>
  <rect x="94" y="156" width="324" height="226" rx="54" fill="#f5f8ff"/>
  <rect x="150" y="120" width="122" height="62" rx="24" fill="#f5f8ff"/>
  <rect x="318" y="180" width="44" height="24" rx="12" fill="#101827" opacity=".82"/>
  <circle cx="256" cy="270" r="92" fill="#101827"/>
  <circle cx="256" cy="270" r="62" fill="none" stroke="url(#lens)" stroke-width="26"/>
  <circle cx="256" cy="270" r="22" fill="#f5f8ff" opacity=".92"/>
  <path d="M216 294l28 28 64-78" fill="none" stroke="#f5f8ff" stroke-width="18" stroke-linecap="round" stroke-linejoin="round"/>
  <circle cx="374" cy="202" r="15" fill="#d29a3f"/>
</svg>
