<svg xmlns="http://www.w3.org/2000/svg" viewBox="0 0 512 512" role="img" aria-label="ProjectProof icon concept A">
  <defs>
    <linearGradient id="bgA" x1="72" y1="42" x2="438" y2="470">
      <stop stop-color="#060b12"/>
      <stop offset=".58" stop-color="#0d1726"/>
      <stop offset="1" stop-color="#12313f"/>
    </linearGradient>
    <linearGradient id="strokeA" x1="138" y1="126" x2="386" y2="390">
      <stop stop-color="#65a3ff"/>
      <stop offset=".5" stop-color="#22b8a9"/>
      <stop offset="1" stop-color="#e4aa45"/>
    </linearGradient>
    <filter id="shadowA" x="-24%" y="-24%" width="148%" height="148%">
      <feDropShadow dx="0" dy="18" stdDeviation="18" flood-color="#000000" flood-opacity=".38"/>
    </filter>
  </defs>
  <rect width="512" height="512" rx="112" fill="url(#bgA)"/>
  <path d="M70 382c82-38 138-31 202-15 72 18 126 4 170-36v108H70z" fill="#020713" opacity=".42"/>
  <g filter="url(#shadowA)">
    <path d="M152 268c0-67 48-120 116-120h82" fill="none" stroke="url(#strokeA)" stroke-width="42" stroke-linecap="round"/>
    <path d="M350 148c-22 0-40 18-40 40v62c0 26-19 46-46 46h-43" fill="none" stroke="#f4f8ff" stroke-width="42" stroke-linecap="round"/>
    <path d="M160 280l64 64 134-142" fill="none" stroke="#f4f8ff" stroke-width="44" stroke-linecap="round" stroke-linejoin="round"/>
  </g>
  <circle cx="386" cy="126" r="12" fill="#e4aa45"/>
</svg>
