<svg xmlns="http://www.w3.org/2000/svg" viewBox="0 0 512 512" role="img" aria-label="ProjectProof camera icon concept 3">
  <defs>
    <linearGradient id="bg" x1="58" y1="46" x2="454" y2="468">
      <stop stop-color="#f2b84b"/>
      <stop offset=".58" stop-color="#d98f2f"/>
      <stop offset="1" stop-color="#b56228"/>
    </linearGradient>
    <linearGradient id="lens" x1="142" y1="142" x2="370" y2="370">
      <stop stop-color="#4f8cff"/>
      <stop offset=".52" stop-color="#18a498"/>
      <stop offset="1" stop-color="#0d1726"/>
    </linearGradient>
  </defs>
  <rect width="512" height="512" rx="112" fill="url(#bg)"/>
  <path d="M72 382c72-30 132-31 194-15 74 20 126 7 174-34v108H72z" fill="#4f2d15" opacity=".24"/>
  <rect x="96" y="156" width="320" height="226" rx="54" fill="#f7fafc"/>
  <rect x="150" y="120" width="124" height="62" rx="24" fill="#f7fafc"/>
  <rect x="318" y="180" width="44" height="24" rx="12" fill="#172235" opacity=".84"/>
  <circle cx="256" cy="270" r="92" fill="#172235"/>
  <circle cx="256" cy="270" r="62" fill="none" stroke="url(#lens)" stroke-width="26"/>
  <circle cx="256" cy="270" r="22" fill="#f7fafc"/>
  <path d="M216 294l28 28 64-78" fill="none" stroke="#f7fafc" stroke-width="18" stroke-linecap="round" stroke-linejoin="round"/>
  <circle cx="374" cy="202" r="15" fill="#18a498"/>
</svg>
