<svg xmlns="http://www.w3.org/2000/svg" viewBox="0 0 512 512" role="img" aria-label="ProjectProof camera icon concept 4">
  <defs>
    <linearGradient id="bg" x1="64" y1="42" x2="448" y2="470">
      <stop stop-color="#f6f8fb"/>
      <stop offset=".6" stop-color="#dce6f3"/>
      <stop offset="1" stop-color="#b8c8dc"/>
    </linearGradient>
    <linearGradient id="lens" x1="142" y1="142" x2="370" y2="370">
      <stop stop-color="#2d65d8"/>
      <stop offset=".52" stop-color="#168f86"/>
      <stop offset="1" stop-color="#d29a3f"/>
    </linearGradient>
  </defs>
  <rect width="512" height="512" rx="112" fill="url(#bg)"/>
  <path d="M72 382c72-30 132-31 194-15 74 20 126 7 174-34v108H72z" fill="#6c7a8e" opacity=".2"/>
  <rect x="96" y="156" width="320" height="226" rx="54" fill="#101827"/>
  <rect x="150" y="120" width="124" height="62" rx="24" fill="#101827"/>
  <rect x="318" y="180" width="44" height="24" rx="12" fill="#f6f8fb" opacity=".78"/>
  <circle cx="256" cy="270" r="92" fill="#f6f8fb"/>
  <circle cx="256" cy="270" r="62" fill="none" stroke="url(#lens)" stroke-width="26"/>
  <circle cx="256" cy="270" r="22" fill="#101827"/>
  <path d="M216 294l28 28 64-78" fill="none" stroke="#101827" stroke-width="18" stroke-linecap="round" stroke-linejoin="round"/>
  <circle cx="374" cy="202" r="15" fill="#d29a3f"/>
</svg>
